<svg width="0" height="0" class="hidden">
  <symbol fill="none" xmlns="http://www.w3.org/2000/svg" viewBox="0 0 10 16" id="slaq">
    <path d="M9.14464 7.37568L2.02444 0.255608C1.85976 0.090796 1.63992 0 1.40552 0C1.17111 0 0.951277 0.090796 0.786595 0.255608L0.262242 0.779831C-0.0789586 1.12142 -0.0789586 1.6766 0.262242 2.01767L6.24125 7.99668L0.255608 13.9823C0.0909261 14.1471 0 14.3668 0 14.6011C0 14.8357 0.0909261 15.0554 0.255608 15.2203L0.779961 15.7444C0.944773 15.9092 1.16448 16 1.39888 16C1.63329 16 1.85312 15.9092 2.0178 15.7444L9.14464 8.61782C9.30971 8.45248 9.40038 8.23174 9.39986 7.99707C9.40038 7.7615 9.30971 7.54088 9.14464 7.37568Z" fill="currentColor"></path>
  </symbol>
  <symbol fill="none" xmlns="http://www.w3.org/2000/svg" viewBox="0 0 28 28" id="slaq dexin">
    <circle cx="14" cy="14" r="14" fill="#FFB624"></circle>
    <g clip-path="url(#clip0_34607_345)">
      <path d="M21.7821 13.4738L17.0208 8.7125C16.7303 8.422 16.2591 8.422 15.9686 8.7125C15.6781 9.00307 15.6781 9.47408 15.9686 9.76464L19.4599 13.256H6.74396C6.33312 13.256 6 13.5891 6 13.9999C6 14.4107 6.33312 14.7439 6.74396 14.7439H19.4599L15.9688 18.2352C15.6782 18.5257 15.6782 18.9968 15.9688 19.2873C16.114 19.4325 16.3044 19.5052 16.4948 19.5052C16.6852 19.5052 16.8756 19.4325 17.0209 19.2873L21.7821 14.526C22.0727 14.2354 22.0727 13.7644 21.7821 13.4738Z" fill="white"></path>
    </g>
    <defs>
      <clipPath id="clip0_34607_345">
        <rect width="16" height="16" fill="white" transform="translate(6 6)"></rect>
      </clipPath>
    </defs>
  </symbol>
  <symbol fill="none" xmlns="http://www.w3.org/2000/svg" viewBox="0 0 20 20" id="youtube">
    <g clip-path="url(#clip0_34607_372)">
      <path d="M10 20C15.5229 20 20 15.5229 20 10C20 4.47716 15.5229 0 10 0C4.47716 0 0 4.47716 0 10C0 15.5229 4.47716 20 10 20Z" fill="white"></path>
      <path d="M17.0708 2.92798C20.9761 6.83357 20.9764 13.1655 17.0708 17.071C13.1656 20.9763 6.83332 20.9765 2.92773 17.071L17.0708 2.92798Z" fill="white"></path>
      <path d="M19.7998 12.0026L14.8505 7.05347L9.01327 7.71808L5.48242 13.1844L12.0801 19.7819C15.9591 18.9613 19.0087 15.8929 19.7998 12.0026Z" fill="white"></path>
      <path d="M15.2338 8.07002C15.2338 7.23171 14.5547 6.55225 13.7168 6.55225H6.59968C5.76201 6.55225 5.08301 7.23188 5.08301 8.07002V12.14C5.08301 12.9783 5.76214 13.6578 6.59968 13.6578H13.7167C14.5547 13.6578 15.2337 12.9781 15.2337 12.14V8.07002H15.2338ZM9.14301 11.822V7.99929L12.042 9.91071L9.14301 11.822Z" fill="#305F64"></path>
    </g>
    <defs>
      <clipPath id="clip0_34607_372">
        <rect width="20" height="20" fill="white"></rect>
      </clipPath>
    </defs>
  </symbol>
  <symbol fill="none" xmlns="http://www.w3.org/2000/svg" viewBox="0 0 20 20" id="instagram 1">
    <g clip-path="url(#clip0_34607_368)">
      <path d="M11.9141 10C11.9141 11.0571 11.0571 11.9141 10 11.9141C8.94287 11.9141 8.08594 11.0571 8.08594 10C8.08594 8.94287 8.94287 8.08594 10 8.08594C11.0571 8.08594 11.9141 8.94287 11.9141 10Z" fill="currentColor"></path>
      <path d="M14.476 6.61343C14.3839 6.36411 14.2372 6.13843 14.0464 5.95319C13.8612 5.76245 13.6357 5.61566 13.3862 5.52365C13.1838 5.44507 12.8799 5.35153 12.32 5.32605C11.7144 5.29843 11.5328 5.29248 9.99963 5.29248C8.46628 5.29248 8.2847 5.29828 7.67923 5.3259C7.11938 5.35153 6.81528 5.44507 6.6131 5.52365C6.36362 5.61566 6.13794 5.76245 5.95285 5.95319C5.76212 6.13843 5.61533 6.36395 5.52316 6.61343C5.44458 6.81577 5.35104 7.11987 5.32556 7.67972C5.29794 8.28519 5.29199 8.46677 5.29199 10.0001C5.29199 11.5333 5.29794 11.7149 5.32556 12.3205C5.35104 12.8804 5.44458 13.1843 5.52316 13.3867C5.61533 13.6361 5.76196 13.8617 5.9527 14.0469C6.13794 14.2376 6.36346 14.3844 6.61295 14.4764C6.81528 14.5552 7.11938 14.6487 7.67923 14.6742C8.2847 14.7018 8.46613 14.7076 9.99948 14.7076C11.533 14.7076 11.7146 14.7018 12.3199 14.6742C12.8797 14.6487 13.1838 14.5552 13.3862 14.4764C13.887 14.2833 14.2828 13.8875 14.476 13.3867C14.5545 13.1843 14.6481 12.8804 14.6737 12.3205C14.7013 11.7149 14.7071 11.5333 14.7071 10.0001C14.7071 8.46677 14.7013 8.28519 14.6737 7.67972C14.6482 7.11987 14.5547 6.81577 14.476 6.61343ZM9.99963 12.9486C8.37106 12.9486 7.05087 11.6285 7.05087 9.99997C7.05087 8.3714 8.37106 7.05136 9.99963 7.05136C11.6281 7.05136 12.9482 8.3714 12.9482 9.99997C12.9482 11.6285 11.6281 12.9486 9.99963 12.9486ZM13.0648 7.62387C12.6843 7.62387 12.3757 7.31534 12.3757 6.93478C12.3757 6.55423 12.6843 6.2457 13.0648 6.2457C13.4454 6.2457 13.7539 6.55423 13.7539 6.93478C13.7538 7.31534 13.4454 7.62387 13.0648 7.62387Z" fill="currentColor"></path>
      <path d="M10 0C4.478 0 0 4.478 0 10C0 15.522 4.478 20 10 20C15.522 20 20 15.522 20 10C20 4.478 15.522 0 10 0ZM15.7076 12.3674C15.6798 12.9787 15.5826 13.396 15.4407 13.7613C15.1424 14.5326 14.5326 15.1424 13.7613 15.4407C13.3961 15.5826 12.9787 15.6796 12.3676 15.7076C11.7552 15.7355 11.5596 15.7422 10.0002 15.7422C8.44055 15.7422 8.24509 15.7355 7.6326 15.7076C7.02148 15.6796 6.604 15.5826 6.23886 15.4407C5.85556 15.2965 5.50858 15.0705 5.22171 14.7783C4.92966 14.4916 4.70367 14.1444 4.55948 13.7613C4.41757 13.3961 4.32037 12.9787 4.2926 12.3676C4.26437 11.7551 4.25781 11.5594 4.25781 10C4.25781 8.44055 4.26437 8.24493 4.29245 7.6326C4.32022 7.02133 4.41727 6.604 4.55917 6.23871C4.70337 5.85556 4.9295 5.50842 5.22171 5.22171C5.50842 4.9295 5.85556 4.70352 6.23871 4.55933C6.604 4.41742 7.02133 4.32037 7.6326 4.29245C8.24493 4.26453 8.44055 4.25781 10 4.25781C11.5594 4.25781 11.7551 4.26453 12.3674 4.2926C12.9787 4.32037 13.396 4.41742 13.7613 4.55917C14.1444 4.70337 14.4916 4.9295 14.7784 5.22171C15.0705 5.50858 15.2966 5.85556 15.4407 6.23871C15.5827 6.604 15.6798 7.02133 15.7077 7.6326C15.7356 8.24493 15.7422 8.44055 15.7422 10C15.7422 11.5594 15.7356 11.7551 15.7076 12.3674Z" fill="currentColor"></path>
    </g>
    <defs>
      <clipPath id="clip0_34607_368">
        <rect width="20" height="20" fill="currentColor"></rect>
      </clipPath>
    </defs>
  </symbol>
  <symbol fill="none" xmlns="http://www.w3.org/2000/svg" viewBox="0 0 20 20" id="twiter">
    <path d="M9.99991 19.9998C15.5227 19.9998 19.9998 15.5227 19.9998 9.99991C19.9998 4.47711 15.5227 0 9.99991 0C4.47711 0 0 4.47711 0 9.99991C0 15.5227 4.47711 19.9998 9.99991 19.9998Z" fill="white"></path>
    <path d="M16.1242 7.18656C15.6957 7.37658 15.2347 7.50511 14.7513 7.56251C15.2449 7.26678 15.6237 6.79885 15.8025 6.24037C15.3406 6.51435 14.8288 6.71311 14.2846 6.82024C13.8486 6.35588 13.2273 6.06567 12.5394 6.06567C11.2196 6.06567 10.1492 7.13611 10.1492 8.45593C10.1492 8.64328 10.1704 8.82564 10.2114 9.00069C8.22489 8.90104 6.46353 7.9495 5.28453 6.50294C5.07882 6.85589 4.96081 7.26678 4.96081 7.70475C4.96081 8.53383 5.3831 9.26576 6.02412 9.69429C5.63249 9.68199 5.26367 9.5745 4.94156 9.395C4.94138 9.40516 4.94138 9.41532 4.94138 9.4253C4.94138 10.5834 5.76565 11.5494 6.8589 11.7689C6.65854 11.8238 6.44695 11.8528 6.22929 11.8528C6.07492 11.8528 5.92537 11.838 5.77955 11.8102C6.08366 12.7596 6.96621 13.4507 8.01241 13.4701C7.1942 14.1113 6.1637 14.4933 5.04352 14.4933C4.851 14.4933 4.66027 14.4821 4.47363 14.4598C5.53088 15.1383 6.7876 15.5338 8.13737 15.5338C12.5339 15.5338 14.9383 11.8917 14.9383 8.73277C14.9383 8.6292 14.9359 8.52599 14.9313 8.42367C15.3987 8.08676 15.8039 7.6659 16.1242 7.18656Z" fill="#305F64"></path>
  </symbol>
  <symbol fill="none" xmlns="http://www.w3.org/2000/svg" viewBox="0 0 20 20" id="facebook">
    <path d="M10 20C15.5228 20 20 15.5228 20 10C20 4.47715 15.5228 0 10 0C4.47715 0 0 4.47715 0 10C0 15.5228 4.47715 20 10 20Z" fill="white"></path>
    <path d="M12.5139 10.3914H10.7295V16.9285H8.02602V10.3914H6.74023V8.09398H8.02602V6.6073C8.02602 5.54416 8.53103 3.87939 10.7536 3.87939L12.7561 3.88777V6.1178H11.3031C11.0648 6.1178 10.7297 6.23688 10.7297 6.74402V8.09612H12.7501L12.5139 10.3914Z" fill="#305F64"></path>
  </symbol>
  <symbol fill="none" xmlns="http://www.w3.org/2000/svg" viewBox="0 0 16 16" id="email 1">
    <g clip-path="url(#clip0_34607_441)">
      <path d="M10.6055 8.08208L15.9994 11.4921V4.52808L10.6055 8.08208Z" fill="#7F7F7F"></path>
      <path d="M0 4.52808V11.4921L5.394 8.08208L0 4.52808Z" fill="#7F7F7F"></path>
      <path d="M15.0003 2.5H1.00027C0.501273 2.5 0.105273 2.872 0.0302734 3.351L8.00027 8.602L15.9703 3.351C15.8953 2.872 15.4993 2.5 15.0003 2.5Z" fill="#7F7F7F"></path>
      <path d="M9.69023 8.68606L8.27523 9.61806C8.19123 9.67306 8.09623 9.70006 8.00023 9.70006C7.90423 9.70006 7.80923 9.67306 7.72523 9.61806L6.31023 8.68506L0.0322266 12.6561C0.109227 13.1311 0.503227 13.5001 1.00023 13.5001H15.0002C15.4972 13.5001 15.8912 13.1311 15.9682 12.6561L9.69023 8.68606Z" fill="#7F7F7F"></path>
    </g>
    <defs>
      <clipPath id="clip0_34607_441">
        <rect width="16" height="16" fill="white"></rect>
      </clipPath>
    </defs>
  </symbol>
  <symbol fill="none" xmlns="http://www.w3.org/2000/svg" viewBox="0 0 16 16" id="astx dexin">
    <path d="M15.9583 5.79422C15.8536 5.47023 15.5662 5.24012 15.2262 5.20948L10.6082 4.79016L8.78208 0.516004C8.64744 0.202764 8.34079 0 8.00008 0C7.65938 0 7.35273 0.202764 7.21808 0.516737L5.39198 4.79016L0.773211 5.20948C0.433847 5.24086 0.147219 5.47023 0.0418692 5.79422C-0.0634802 6.1182 0.0338123 6.47355 0.290533 6.69756L3.78122 9.75892L2.7519 14.2931C2.67658 14.6265 2.80598 14.9711 3.0826 15.171C3.23128 15.2785 3.40524 15.3332 3.58066 15.3332C3.73191 15.3332 3.88193 15.2924 4.01658 15.2118L8.00008 12.831L11.9821 15.2118C12.2735 15.3871 12.6408 15.3711 12.9168 15.171C13.1936 14.9705 13.3229 14.6257 13.2475 14.2931L12.2182 9.75892L15.7089 6.69817C15.9656 6.47355 16.0636 6.11881 15.9583 5.79422Z" fill="#FFB624"></path>
  </symbol>
  <symbol fill="none" xmlns="http://www.w3.org/2000/svg" viewBox="0 0 24 24" id="hallway">
    <g clip-path="url(#clip0_34607_264)">
      <path d="M23.625 7.31323H0.375C0.167542 7.31323 0 7.14569 0 6.93823V5.4375C0 5.23004 0.167542 5.0625 0.375 5.0625H23.625C23.8325 5.0625 24 5.23004 24 5.4375V6.93823C24 7.14569 23.8325 7.31323 23.625 7.31323ZM0.75 6.56323H23.25V5.8125H0.75V6.56323Z" fill="currentColor"></path>
      <path d="M0.75 18.9451C0.542542 18.9451 0.375 18.7775 0.375 18.5701V7.00513C0.375 6.79767 0.542542 6.63013 0.75 6.63013C0.957458 6.63013 1.125 6.79767 1.125 7.00513V18.5701C1.125 18.7775 0.957458 18.9451 0.75 18.9451Z" fill="currentColor"></path>
      <path d="M1.875 18.9451C1.66754 18.9451 1.5 18.7775 1.5 18.5701V7.00513C1.5 6.79767 1.66754 6.63013 1.875 6.63013C2.08246 6.63013 2.25 6.79767 2.25 7.00513V18.5701C2.25 18.7775 2.08246 18.9451 1.875 18.9451Z" fill="currentColor"></path>
      <path d="M22.125 18.9451C21.9175 18.9451 21.75 18.7775 21.75 18.5701V7.00513C21.75 6.79767 21.9175 6.63013 22.125 6.63013C22.3325 6.63013 22.5 6.79767 22.5 7.00513V18.5701C22.5 18.7775 22.3325 18.9451 22.125 18.9451Z" fill="currentColor"></path>
      <path d="M23.25 18.9451C23.0425 18.9451 22.875 18.7775 22.875 18.5701V7.00513C22.875 6.79767 23.0425 6.63013 23.25 6.63013C23.4575 6.63013 23.625 6.79767 23.625 7.00513V18.5701C23.625 18.7775 23.4575 18.9451 23.25 18.9451Z" fill="currentColor"></path>
      <path d="M1.875 18.9451H0.75C0.542542 18.9451 0.375 18.7775 0.375 18.5701C0.375 18.3626 0.542542 18.1951 0.75 18.1951H1.875C2.08246 18.1951 2.25 18.3626 2.25 18.5701C2.25 18.7775 2.08246 18.9451 1.875 18.9451Z" fill="currentColor"></path>
      <path d="M23.25 18.9451H22.125C21.9175 18.9451 21.75 18.7775 21.75 18.5701C21.75 18.3626 21.9175 18.1951 22.125 18.1951H23.25C23.4575 18.1951 23.625 18.3626 23.625 18.5701C23.625 18.7775 23.4575 18.9451 23.25 18.9451Z" fill="currentColor"></path>
      <path d="M22.125 12.5679H1.875C1.66754 12.5679 1.5 12.4001 1.5 12.1929C1.5 11.9854 1.66754 11.8179 1.875 11.8179H22.125C22.3325 11.8179 22.5 11.9854 22.5 12.1929C22.5 12.4001 22.3325 12.5679 22.125 12.5679Z" fill="currentColor"></path>
      <path d="M22.125 13.6936H1.875C1.66754 13.6936 1.5 13.5259 1.5 13.3186C1.5 13.1111 1.66754 12.9436 1.875 12.9436H22.125C22.3325 12.9436 22.5 13.1111 22.5 13.3186C22.5 13.5259 22.3325 13.6936 22.125 13.6936Z" fill="currentColor"></path>
      <path d="M3.37402 12.5686C3.16656 12.5686 2.99902 12.4009 2.99902 12.1936C2.99902 11.1596 3.83984 10.3186 4.87366 10.3186C5.08093 10.3186 5.24866 10.4861 5.24866 10.6936C5.24866 10.9009 5.08093 11.0686 4.87366 11.0686C4.25385 11.0686 3.74902 11.5732 3.74902 12.1936C3.74902 12.4009 3.5813 12.5686 3.37402 12.5686Z" fill="currentColor"></path>
      <path d="M7.12463 12.5686C6.91718 12.5686 6.74963 12.4009 6.74963 12.1936C6.74963 11.5732 6.24481 11.0686 5.625 11.0686C5.41772 11.0686 5.25 10.9009 5.25 10.6936C5.25 10.4861 5.41772 10.3186 5.625 10.3186C6.65881 10.3186 7.49963 11.1596 7.49963 12.1936C7.49963 12.4009 7.33209 12.5686 7.12463 12.5686Z" fill="currentColor"></path>
      <path d="M3.74902 11.5767C3.54156 11.5767 3.37402 11.409 3.37402 11.2017V9.1936C3.37402 8.98615 3.54156 8.8186 3.74902 8.8186C3.9563 8.8186 4.12402 8.98615 4.12402 9.1936V11.2017C4.12402 11.409 3.9563 11.5767 3.74902 11.5767Z" fill="currentColor"></path>
      <path d="M6.74902 11.5767C6.54156 11.5767 6.37402 11.409 6.37402 11.2017V9.1936C6.37402 8.98615 6.54156 8.8186 6.74902 8.8186C6.9563 8.8186 7.12402 8.98615 7.12402 9.1936V11.2017C7.12402 11.409 6.9563 11.5767 6.74902 11.5767Z" fill="currentColor"></path>
      <path d="M4.5 9.94434C4.29254 9.94434 4.125 9.77661 4.125 9.56934V8.4436C4.125 8.23615 4.29254 8.0686 4.5 8.0686C4.70746 8.0686 4.875 8.23615 4.875 8.4436V9.56934C4.875 9.77661 4.70746 9.94434 4.5 9.94434Z" fill="currentColor"></path>
      <path d="M6 8.8186H4.5C4.29254 8.8186 4.125 8.65088 4.125 8.4436C4.125 8.23615 4.29254 8.0686 4.5 8.0686H6C6.20746 8.0686 6.375 8.23615 6.375 8.4436C6.375 8.65088 6.20746 8.8186 6 8.8186Z" fill="currentColor"></path>
      <path d="M6 9.94434C5.79254 9.94434 5.625 9.77661 5.625 9.56934V8.4436C5.625 8.23615 5.79254 8.0686 6 8.0686C6.20746 8.0686 6.375 8.23615 6.375 8.4436V9.56934C6.375 9.77661 6.20746 9.94434 6 9.94434Z" fill="currentColor"></path>
      <path d="M4.49976 9.5686H3.74902C3.54156 9.5686 3.37402 9.40088 3.37402 9.1936C3.37402 8.98615 3.54156 8.8186 3.74902 8.8186H4.49976C4.70721 8.8186 4.87476 8.98615 4.87476 9.1936C4.87476 9.40088 4.70721 9.5686 4.49976 9.5686Z" fill="currentColor"></path>
      <path d="M6.74854 9.5686H6C5.79254 9.5686 5.625 9.40088 5.625 9.1936C5.625 8.98615 5.79254 8.8186 6 8.8186H6.74854C6.95581 8.8186 7.12354 8.98615 7.12354 9.1936C7.12354 9.40088 6.95581 9.5686 6.74854 9.5686Z" fill="currentColor"></path>
      <path d="M5.62549 11.0686H4.87402C4.66656 11.0686 4.49902 10.9009 4.49902 10.6936C4.49902 10.4861 4.66656 10.3186 4.87402 10.3186H5.62549C5.83295 10.3186 6.00049 10.4861 6.00049 10.6936C6.00049 10.9009 5.83295 11.0686 5.62549 11.0686Z" fill="currentColor"></path>
      <path d="M8.24902 12.5686C8.04156 12.5686 7.87402 12.4009 7.87402 12.1936C7.87402 11.1596 8.71484 10.3186 9.74866 10.3186C9.95593 10.3186 10.1237 10.4861 10.1237 10.6936C10.1237 10.9009 9.95593 11.0686 9.74866 11.0686C9.12885 11.0686 8.62402 11.5732 8.62402 12.1936C8.62402 12.4009 8.4563 12.5686 8.24902 12.5686Z" fill="currentColor"></path>
      <path d="M11.9996 12.5686C11.7922 12.5686 11.6246 12.4009 11.6246 12.1936C11.6246 11.5732 11.1198 11.0686 10.5 11.0686C10.2927 11.0686 10.125 10.9009 10.125 10.6936C10.125 10.4861 10.2927 10.3186 10.5 10.3186C11.5338 10.3186 12.3746 11.1596 12.3746 12.1936C12.3746 12.4009 12.2071 12.5686 11.9996 12.5686Z" fill="currentColor"></path>
      <path d="M8.62402 11.5767C8.41656 11.5767 8.24902 11.409 8.24902 11.2017V9.1936C8.24902 8.98615 8.41656 8.8186 8.62402 8.8186C8.8313 8.8186 8.99902 8.98615 8.99902 9.1936V11.2017C8.99902 11.409 8.8313 11.5767 8.62402 11.5767Z" fill="currentColor"></path>
      <path d="M11.624 11.5767C11.4166 11.5767 11.249 11.409 11.249 11.2017V9.1936C11.249 8.98615 11.4166 8.8186 11.624 8.8186C11.8313 8.8186 11.999 8.98615 11.999 9.1936V11.2017C11.999 11.409 11.8313 11.5767 11.624 11.5767Z" fill="currentColor"></path>
      <path d="M9.375 9.94434C9.16754 9.94434 9 9.77661 9 9.56934V8.4436C9 8.23615 9.16754 8.0686 9.375 8.0686C9.58246 8.0686 9.75 8.23615 9.75 8.4436V9.56934C9.75 9.77661 9.58246 9.94434 9.375 9.94434Z" fill="currentColor"></path>
      <path d="M10.875 8.8186H9.375C9.16754 8.8186 9 8.65088 9 8.4436C9 8.23615 9.16754 8.0686 9.375 8.0686H10.875C11.0825 8.0686 11.25 8.23615 11.25 8.4436C11.25 8.65088 11.0825 8.8186 10.875 8.8186Z" fill="currentColor"></path>
      <path d="M10.875 9.94434C10.6675 9.94434 10.5 9.77661 10.5 9.56934V8.4436C10.5 8.23615 10.6675 8.0686 10.875 8.0686C11.0825 8.0686 11.25 8.23615 11.25 8.4436V9.56934C11.25 9.77661 11.0825 9.94434 10.875 9.94434Z" fill="currentColor"></path>
      <path d="M9.37476 9.5686H8.62402C8.41656 9.5686 8.24902 9.40088 8.24902 9.1936C8.24902 8.98615 8.41656 8.8186 8.62402 8.8186H9.37476C9.58221 8.8186 9.74976 8.98615 9.74976 9.1936C9.74976 9.40088 9.58221 9.5686 9.37476 9.5686Z" fill="currentColor"></path>
      <path d="M11.6235 9.5686H10.875C10.6675 9.5686 10.5 9.40088 10.5 9.1936C10.5 8.98615 10.6675 8.8186 10.875 8.8186H11.6235C11.8308 8.8186 11.9985 8.98615 11.9985 9.1936C11.9985 9.40088 11.8308 9.5686 11.6235 9.5686Z" fill="currentColor"></path>
      <path d="M10.5005 11.0686H9.74902C9.54156 11.0686 9.37402 10.9009 9.37402 10.6936C9.37402 10.4861 9.54156 10.3186 9.74902 10.3186H10.5005C10.7079 10.3186 10.8755 10.4861 10.8755 10.6936C10.8755 10.9009 10.7079 11.0686 10.5005 11.0686Z" fill="currentColor"></path>
      <path d="M12.0078 18.1943C11.8004 18.1943 11.6328 18.0266 11.6328 17.8193C11.6328 17.1986 12.138 16.6936 12.7585 16.6936C12.966 16.6936 13.1335 16.8611 13.1335 17.0686C13.1335 17.2759 12.966 17.4436 12.7585 17.4436C12.5513 17.4436 12.3828 17.6119 12.3828 17.8193C12.3828 18.0266 12.2149 18.1943 12.0078 18.1943Z" fill="currentColor"></path>
      <path d="M15.7588 18.1943C15.5515 18.1943 15.3838 18.0266 15.3838 17.8193C15.3838 17.6122 15.2159 17.4443 15.0088 17.4443C14.8015 17.4443 14.6338 17.2766 14.6338 17.0693C14.6338 16.8619 14.8015 16.6943 15.0088 16.6943C15.6292 16.6943 16.1338 17.199 16.1338 17.8193C16.1338 18.0266 15.9662 18.1943 15.7588 18.1943Z" fill="currentColor"></path>
      <path d="M15.7589 18.9451H12.0078C11.8004 18.9451 11.6328 18.7775 11.6328 18.5701C11.6328 18.3626 11.8004 18.1951 12.0078 18.1951H15.7593C15.9667 18.1951 16.1343 18.3626 16.1343 18.5701C16.1343 18.7775 15.9664 18.9451 15.7589 18.9451Z" fill="currentColor"></path>
      <path d="M15.0393 17.4436H12.7285C12.5212 17.4436 12.3535 17.2759 12.3535 17.0686C12.3535 16.8611 12.5212 16.6936 12.7285 16.6936H15.0393C15.2468 16.6936 15.4143 16.8611 15.4143 17.0686C15.4143 17.2759 15.2468 17.4436 15.0393 17.4436Z" fill="currentColor"></path>
      <path d="M12.7578 17.4436C12.5504 17.4436 12.3828 17.2759 12.3828 17.0686V14.8193C12.3828 14.6119 12.5504 14.4443 12.7578 14.4443C12.9653 14.4443 13.1328 14.6119 13.1328 14.8193V17.0686C13.1328 17.2759 12.9653 17.4436 12.7578 17.4436Z" fill="currentColor"></path>
      <path d="M15.0098 17.4443C14.8025 17.4443 14.6348 17.2766 14.6348 17.0693V14.8193C14.6348 14.6119 14.8025 14.4443 15.0098 14.4443C15.2172 14.4443 15.3848 14.6119 15.3848 14.8193V17.0693C15.3848 17.2766 15.2172 17.4443 15.0098 17.4443Z" fill="currentColor"></path>
      <path d="M12.0078 18.9451C11.8004 18.9451 11.6328 18.7775 11.6328 18.5701V17.8193C11.6328 17.6119 11.8004 17.4443 12.0078 17.4443C12.2153 17.4443 12.3828 17.6119 12.3828 17.8193V18.5701C12.3828 18.7775 12.2149 18.9451 12.0078 18.9451Z" fill="currentColor"></path>
      <path d="M15.7588 18.9451C15.5515 18.9451 15.3838 18.7775 15.3838 18.5701V17.8193C15.3838 17.6119 15.5515 17.4443 15.7588 17.4443C15.9662 17.4443 16.1338 17.6119 16.1338 17.8193V18.5701C16.1338 18.7775 15.9662 18.9451 15.7588 18.9451Z" fill="currentColor"></path>
      <path d="M15.0093 15.1943H12.7578C12.5504 15.1943 12.3828 15.0266 12.3828 14.8193C12.3828 14.6119 12.5504 14.4443 12.7578 14.4443H15.0093C15.2167 14.4443 15.3843 14.6119 15.3843 14.8193C15.3843 15.0266 15.2167 15.1943 15.0093 15.1943Z" fill="currentColor"></path>
      <path d="M15.3839 16.3193H12.3828C12.1754 16.3193 12.0078 16.1516 12.0078 15.9443C12.0078 15.7369 12.1754 15.5693 12.3828 15.5693H15.3839C15.5914 15.5693 15.7589 15.7369 15.7589 15.9443C15.7589 16.1516 15.5914 16.3193 15.3839 16.3193Z" fill="currentColor"></path>
      <path d="M16.8828 18.1943C16.6754 18.1943 16.5078 18.0266 16.5078 17.8193C16.5078 17.1986 17.013 16.6936 17.6335 16.6936C17.841 16.6936 18.0085 16.8611 18.0085 17.0686C18.0085 17.2759 17.841 17.4436 17.6335 17.4436C17.4263 17.4436 17.2578 17.6119 17.2578 17.8193C17.2578 18.0266 17.0899 18.1943 16.8828 18.1943Z" fill="currentColor"></path>
      <path d="M20.6338 18.1943C20.4265 18.1943 20.2588 18.0266 20.2588 17.8193C20.2588 17.6122 20.0909 17.4443 19.8838 17.4443C19.6765 17.4443 19.5088 17.2766 19.5088 17.0693C19.5088 16.8619 19.6765 16.6943 19.8838 16.6943C20.5042 16.6943 21.0088 17.199 21.0088 17.8193C21.0088 18.0266 20.8412 18.1943 20.6338 18.1943Z" fill="currentColor"></path>
      <path d="M20.6339 18.9451H16.8828C16.6754 18.9451 16.5078 18.7775 16.5078 18.5701C16.5078 18.3626 16.6754 18.1951 16.8828 18.1951H20.6343C20.8417 18.1951 21.0093 18.3626 21.0093 18.5701C21.0093 18.7775 20.8414 18.9451 20.6339 18.9451Z" fill="currentColor"></path>
      <path d="M19.9143 17.4436H17.6035C17.3962 17.4436 17.2285 17.2759 17.2285 17.0686C17.2285 16.8611 17.3962 16.6936 17.6035 16.6936H19.9143C20.1218 16.6936 20.2893 16.8611 20.2893 17.0686C20.2893 17.2759 20.1218 17.4436 19.9143 17.4436Z" fill="currentColor"></path>
      <path d="M17.6328 17.4436C17.4254 17.4436 17.2578 17.2759 17.2578 17.0686V14.8193C17.2578 14.6119 17.4254 14.4443 17.6328 14.4443C17.8403 14.4443 18.0078 14.6119 18.0078 14.8193V17.0686C18.0078 17.2759 17.8403 17.4436 17.6328 17.4436Z" fill="currentColor"></path>
      <path d="M19.8848 17.4443C19.6775 17.4443 19.5098 17.2766 19.5098 17.0693V14.8193C19.5098 14.6119 19.6775 14.4443 19.8848 14.4443C20.0922 14.4443 20.2598 14.6119 20.2598 14.8193V17.0693C20.2598 17.2766 20.0922 17.4443 19.8848 17.4443Z" fill="currentColor"></path>
      <path d="M16.8828 18.9451C16.6754 18.9451 16.5078 18.7775 16.5078 18.5701V17.8193C16.5078 17.6119 16.6754 17.4443 16.8828 17.4443C17.0903 17.4443 17.2578 17.6119 17.2578 17.8193V18.5701C17.2578 18.7775 17.0899 18.9451 16.8828 18.9451Z" fill="currentColor"></path>
      <path d="M20.6338 18.9451C20.4265 18.9451 20.2588 18.7775 20.2588 18.5701V17.8193C20.2588 17.6119 20.4265 17.4443 20.6338 17.4443C20.8412 17.4443 21.0088 17.6119 21.0088 17.8193V18.5701C21.0088 18.7775 20.8412 18.9451 20.6338 18.9451Z" fill="currentColor"></path>
      <path d="M19.8843 15.1943H17.6328C17.4254 15.1943 17.2578 15.0266 17.2578 14.8193C17.2578 14.6119 17.4254 14.4443 17.6328 14.4443H19.8843C20.0917 14.4443 20.2593 14.6119 20.2593 14.8193C20.2593 15.0266 20.0917 15.1943 19.8843 15.1943Z" fill="currentColor"></path>
      <path d="M20.2589 16.3193H17.2578C17.0504 16.3193 16.8828 16.1516 16.8828 15.9443C16.8828 15.7369 17.0504 15.5693 17.2578 15.5693H20.2589C20.4664 15.5693 20.6339 15.7369 20.6339 15.9443C20.6339 16.1516 20.4664 16.3193 20.2589 16.3193Z" fill="currentColor"></path>
    </g>
    <defs>
      <clipPath id="clip0_34607_264">
        <rect width="24" height="24" fill="white"></rect>
      </clipPath>
    </defs>
  </symbol>
  <symbol fill="none" xmlns="http://www.w3.org/2000/svg" viewBox="0 0 24 19" id="living room">
    <path d="M1.99181 10.7307H22.0084C22.8334 10.7307 23.5021 10.0619 23.5021 9.23692C23.5021 8.41193 22.8334 7.74316 22.0084 7.74316H1.99181C1.16681 7.74316 0.498047 8.41193 0.498047 9.23692C0.498 10.0619 1.16681 10.7307 1.99181 10.7307Z" fill="currentColor"></path>
    <path d="M13.4938 4.52112C13.0578 4.52112 12.7031 4.87577 12.7031 5.31176V6.33677H18.8221V5.31176C18.8221 4.87577 18.4675 4.52112 18.0315 4.52112H13.4938Z" fill="currentColor"></path>
    <path d="M3.77151 5.31187C3.77151 4.10048 4.75701 3.11498 5.9684 3.11498H10.5061C11.0826 3.11498 11.6076 3.33848 11.9999 3.70298C12.3922 3.33848 12.9172 3.11498 13.4937 3.11498H18.0314C19.2428 3.11498 20.2283 4.10048 20.2283 5.31187V6.33689H22.5106V1.49377C22.5106 0.668766 21.8418 0 21.0168 0H2.98302C2.15802 0 1.48926 0.668766 1.48926 1.49377V6.33689H3.77151V5.31187Z" fill="currentColor"></path>
    <path d="M5.96838 4.52112C5.53239 4.52112 5.17773 4.87577 5.17773 5.31176V6.33677H11.2968V5.31176C11.2968 4.87577 10.9421 4.52112 10.5061 4.52112H5.96838Z" fill="currentColor"></path>
    <path d="M0 12.1368V18.6064H1.40625V16.0425H22.5938V18.6064H24V12.1368H0Z" fill="currentColor"></path>
  </symbol>
  <symbol fill="none" xmlns="http://www.w3.org/2000/svg" viewBox="0 0 24 24" id="oficce">
    <path d="M24 6.32812V1.64062C24 0.735984 23.264 0 22.3594 0H13.9219C13.0172 0 12.2812 0.735984 12.2812 1.64062V6.32812C12.2812 7.23277 13.0172 7.96875 13.9219 7.96875H15.8339L15.4823 9.375H11.5469L11.4041 6.23236C11.3527 5.10323 10.4271 4.21875 9.29686 4.21875H5.42194C4.29169 4.21875 3.36609 5.10323 3.31472 6.23236L3.17189 9.375H0.703125C0.314812 9.375 0 9.68981 0 10.0781V22.2656C0 22.6539 0.314812 22.9688 0.703125 22.9688C1.09144 22.9688 1.40625 22.6539 1.40625 22.2656V13.5938H3.00422C3.05541 14.1726 3.29836 14.7122 3.70762 15.1405C4.12378 15.576 4.66275 15.8449 5.25005 15.9171V17.1094C5.25005 17.9344 5.86233 18.6189 6.6563 18.733V20.4227L3.885 21.2145C3.58308 21.3008 3.375 21.5767 3.375 21.8906V23.2969C3.375 23.6852 3.68981 24 4.07812 24C4.46644 24 4.78125 23.6852 4.78125 23.2969V22.421L6.65625 21.8852V22.8281C6.65625 23.2164 6.97106 23.5312 7.35938 23.5312C7.74769 23.5312 8.0625 23.2164 8.0625 22.8281V21.8853L9.9375 22.421V23.2969C9.9375 23.6852 10.2523 24 10.6406 24C11.0289 24 11.3438 23.6852 11.3438 23.2969V21.8906C11.3438 21.5767 11.1357 21.3008 10.8338 21.2145L8.0625 20.4228V18.733C8.85647 18.6189 9.46875 17.9345 9.46875 17.1094V15.9172C10.056 15.845 10.595 15.576 11.0112 15.1406C11.4204 14.7123 11.6634 14.1727 11.7146 13.5938H13.2188V22.2657C13.2188 22.654 13.5336 22.9688 13.9219 22.9688C14.3102 22.9688 14.625 22.654 14.625 22.2657V20.1563H22.5938V22.2657C22.5938 22.654 22.9086 22.9688 23.2969 22.9688C23.6852 22.9688 24 22.654 24 22.2657V10.0781C24 9.68981 23.6852 9.375 23.2969 9.375H20.799L20.4474 7.96875H22.3594C23.264 7.96875 24 7.23277 24 6.32812ZM3.04402 12.1875H1.40625V10.7812H3.10795L3.04402 12.1875ZM8.0625 17.1094C8.0625 17.2386 7.95736 17.3438 7.82812 17.3438H6.89062C6.76139 17.3438 6.65625 17.2386 6.65625 17.1094V15.9375H8.0625V17.1094ZM9.99445 14.169C9.77123 14.4026 9.47034 14.5312 9.14723 14.5312H5.57156C5.24845 14.5312 4.94756 14.4026 4.72434 14.169C4.50108 13.9354 4.38623 13.6289 4.40091 13.3061L4.71952 6.29616C4.73662 5.91984 5.04516 5.625 5.42189 5.625H9.29681C9.67359 5.625 9.98213 5.91984 9.99923 6.2962L10.3178 13.3062C10.3326 13.629 10.2177 13.9354 9.99445 14.169ZM22.5938 18.75H14.625V13.5938H22.5938V18.75ZM22.5938 10.7812V12.1875H11.6747L11.6108 10.7812H22.5938ZM16.9318 9.375L17.2833 7.96875H18.9979L19.3494 9.375H16.9318ZM13.9219 6.5625C13.7926 6.5625 13.6875 6.45736 13.6875 6.32812V1.64062C13.6875 1.51139 13.7926 1.40625 13.9219 1.40625H22.3594C22.4886 1.40625 22.5938 1.51139 22.5938 1.64062V6.32812C22.5938 6.45736 22.4886 6.5625 22.3594 6.5625H13.9219Z" fill="currentColor"></path>
    <path d="M17.2031 16.4062H20.0156C20.4039 16.4062 20.7188 16.0914 20.7188 15.7031C20.7188 15.3148 20.4039 15 20.0156 15H17.2031C16.8148 15 16.5 15.3148 16.5 15.7031C16.5 16.0914 16.8148 16.4062 17.2031 16.4062Z" fill="currentColor"></path>
  </symbol>
  <symbol fill="none" xmlns="http://www.w3.org/2000/svg" viewBox="0 0 24 19" id="dinning rooom">
    <path d="M19.6216 7.08209C19.9025 7.08209 20.1302 6.85441 20.1302 6.57351V4.94205C20.1302 4.66116 19.9025 4.43347 19.6216 4.43347L18.8977 4.43788L16.5225 7.08209H19.6216Z" fill="currentColor"></path>
    <path d="M4.37675 7.08189H7.50026L5.08382 4.43335H4.37675C4.09585 4.43335 3.86816 4.66104 3.86816 4.94193V6.57326C3.86816 6.8542 4.09585 7.08189 4.37675 7.08189Z" fill="currentColor"></path>
    <path d="M12.2905 9.70468L17.0037 4.43347H6.99414L11.7848 9.70669C11.9206 9.85619 12.1559 9.85525 12.2905 9.70468Z" fill="currentColor"></path>
    <path d="M13.6171 17.1227H12.7415V11.204C12.5315 11.3253 12.2915 11.3915 12.0439 11.3925C12.042 11.3925 12.0402 11.3925 12.0383 11.3925C11.7889 11.3925 11.5469 11.3262 11.3352 11.204V17.1227H10.3799C9.99159 17.1227 9.67676 17.4375 9.67676 17.8258C9.67676 18.2142 9.99159 18.529 10.3799 18.529H13.6172C14.0055 18.529 14.3203 18.2142 14.3203 17.8258C14.3203 17.4375 14.0054 17.1227 13.6171 17.1227Z" fill="currentColor"></path>
    <path d="M5.92969 9.03834H1.40635V0.703176C1.40635 0.314835 1.09152 0 0.703176 0C0.314835 0 0 0.314835 0 0.703176V17.8821C0 18.2704 0.314835 18.5853 0.703176 18.5853C1.09152 18.5853 1.40635 18.2704 1.40635 17.8821V12.6297H6.51905V17.8821C6.51905 18.2704 6.83388 18.5853 7.22223 18.5853C7.61057 18.5853 7.9254 18.2704 7.9254 17.8821V11.034C7.9254 9.93358 7.03012 9.03834 5.92969 9.03834Z" fill="currentColor"></path>
    <path d="M23.2961 0C22.9078 0 22.593 0.314835 22.593 0.703176V9.03834H18.1744C17.0739 9.03834 16.1787 9.93362 16.1787 11.034V17.8821C16.1787 18.2704 16.4935 18.5853 16.8819 18.5853C17.2702 18.5853 17.5851 18.2704 17.5851 17.8821V12.6286H22.593V17.8821C22.593 18.2704 22.9078 18.5853 23.2962 18.5853C23.6845 18.5853 23.9994 18.2704 23.9994 17.8821V0.703176C23.9993 0.314835 23.6845 0 23.2961 0Z" fill="currentColor"></path>
  </symbol>
  <symbol fill="none" xmlns="http://www.w3.org/2000/svg" viewBox="0 0 24 24" id="kichen">
    <path d="M0 24H9.88598V18.3308H0V24ZM2.16216 19.7989H7.77066V21.2045H2.16216V19.7989Z" fill="currentColor"></path>
    <path d="M0 16.9252H9.88598V11.3497H0V16.9252ZM2.16216 12.8453H7.77066V14.2509H2.16216V12.8453Z" fill="currentColor"></path>
    <path d="M11.292 24H23.9892V11.3497H11.292V24ZM19.7256 12.8453H21.1311V14.2856H19.7256V12.8453ZM16.9144 12.8453H18.32V14.2856H16.9144V12.8453ZM14.1032 12.8453H15.5088V14.2856H14.1032V12.8453ZM14.1032 15.5431H21.1311V21.1889H14.1032V15.5431Z" fill="currentColor"></path>
    <path d="M19.7256 3.24052V0H15.5088V3.24286L11.292 6.054V8.53852H23.9892V6.05166L19.7256 3.24052Z" fill="currentColor"></path>
  </symbol>
  <symbol fill="none" xmlns="http://www.w3.org/2000/svg" viewBox="0 0 24 18" id="elipse">
    <path d="M4.45312 8.25H10.5938C11.1336 8.25 11.6265 8.45409 12 8.78883C12.3735 8.45405 12.8664 8.25 13.4062 8.25H19.5469V0.709453C19.5469 0.322969 19.2376 0.00135937 18.8512 0C18.8453 0 19.0911 0 5.15625 0C4.75612 0 4.45312 0.328031 4.45312 0.709453V8.25Z" fill="currentColor"></path>
    <path d="M12.7031 10.3594V12H19.5469C19.5469 10.9614 19.5469 10.7481 19.5469 9.65625H13.4062C13.0185 9.65625 12.7031 9.97167 12.7031 10.3594Z" fill="currentColor"></path>
    <path d="M21.7272 4.8761C21.2938 4.8896 20.9531 5.25317 20.9531 5.68676C20.9531 5.79804 20.9531 13.1025 20.9531 12.7032C20.9531 13.0915 20.6383 13.4063 20.25 13.4063C19.6879 13.4063 3.21623 13.4063 3.75 13.4063C3.36169 13.4063 3.04688 13.0915 3.04688 12.7032C3.04688 12.4437 3.04688 5.61912 3.04688 5.68676C3.04688 5.25317 2.70623 4.8896 2.27283 4.8761C1.02361 4.8372 0 5.83657 0 7.07815V14.2969C0 15.4619 0.944391 16.4063 2.10938 16.4063H3.04688V17.1833C3.04688 17.5619 3.33783 17.8877 3.71602 17.9055C4.1198 17.9245 4.45312 17.6028 4.45312 17.2032V16.4063H19.5469V17.1833C19.5469 17.5619 19.8378 17.8877 20.216 17.9055C20.6198 17.9245 20.9531 17.6028 20.9531 17.2032V16.4063H21.8906C23.0556 16.4063 24 15.4619 24 14.2969V7.11776C24 5.81974 22.9684 4.83743 21.7272 4.8761Z" fill="currentColor"></path>
    <path d="M11.2969 10.3594C11.2969 9.97167 10.9815 9.65625 10.5938 9.65625H4.45312V12H11.2969V10.3594Z" fill="currentColor"></path>
  </symbol>
  <symbol fill="none" xmlns="http://www.w3.org/2000/svg" viewBox="0 0 26 26" id="icon41">
    <circle cx="13" cy="13" r="13" fill="currentColor"></circle>
    <g clip-path="url(#clip0_34607_88)">
      <path d="M13 17.4436C12.8576 17.4436 12.7204 17.3921 12.6134 17.2984C12.2094 16.9451 11.82 16.6132 11.4763 16.3204L11.4746 16.3188C10.4671 15.4603 9.59713 14.7189 8.99182 13.9885C8.31517 13.172 8 12.3979 8 11.5522C8 10.7305 8.28175 9.97242 8.7933 9.41754C9.31096 8.85609 10.0213 8.54688 10.7936 8.54688C11.3708 8.54688 11.8995 8.72937 12.3648 9.08925C12.5996 9.2709 12.8125 9.49322 13 9.75255C13.1876 9.49322 13.4004 9.2709 13.6353 9.08925C14.1006 8.72937 14.6292 8.54688 15.2065 8.54688C15.9787 8.54688 16.6891 8.85609 17.2068 9.41754C17.7183 9.97242 18 10.7305 18 11.5522C18 12.3979 17.6849 13.172 17.0082 13.9885C16.4029 14.7189 15.533 15.4602 14.5257 16.3187C14.1815 16.612 13.7914 16.9445 13.3865 17.2985C13.2796 17.3921 13.1423 17.4436 13 17.4436ZM10.7936 9.13266C10.1868 9.13266 9.62941 9.37482 9.22391 9.81457C8.81238 10.261 8.58571 10.878 8.58571 11.5522C8.58571 12.2635 8.85007 12.8996 9.44279 13.6148C10.0157 14.3061 10.8678 15.0322 11.8544 15.8731L11.8563 15.8746C12.2012 16.1685 12.5922 16.5018 12.9992 16.8576C13.4085 16.5011 13.8002 16.1673 14.1458 15.8729C15.1323 15.0321 15.9844 14.3061 16.5573 13.6148C17.1499 12.8996 17.4143 12.2635 17.4143 11.5522C17.4143 10.878 17.1876 10.261 16.7761 9.81457C16.3707 9.37482 15.8132 9.13266 15.2065 9.13266C14.762 9.13266 14.3539 9.27395 13.9936 9.55258C13.6724 9.80099 13.4488 10.115 13.3176 10.3347C13.2502 10.4477 13.1314 10.5152 13 10.5152C12.8685 10.5152 12.7498 10.4477 12.6824 10.3347C12.5513 10.115 12.3276 9.80099 12.0064 9.55258C11.6461 9.27395 11.238 9.13266 10.7936 9.13266Z" fill="black"></path>
    </g>
    <defs>
      <clipPath id="clip0_34607_88">
        <rect width="10" height="9.99998" fill="currentColor" transform="translate(8 8)"></rect>
      </clipPath>
    </defs>
  </symbol>
  <symbol fill="none" xmlns="http://www.w3.org/2000/svg" viewBox="0 0 26 26" id="icon42">
    <circle cx="13" cy="13" r="13" fill="currentColor"></circle>
    <g clip-path="url(#clip0_34607_72)">
      <path d="M15.9297 14.4844C15.3509 14.4844 14.8365 14.7657 14.5161 15.1987L11.7569 13.7886C11.8032 13.6313 11.8281 13.465 11.8281 13.293C11.8281 13.0599 11.7824 12.8374 11.6997 12.6337L14.5915 10.8963C14.9142 11.275 15.3943 11.5156 15.9297 11.5156C16.8989 11.5156 17.6875 10.7271 17.6875 9.75781C17.6875 8.78855 16.8989 8 15.9297 8C14.9604 8 14.1719 8.78855 14.1719 9.75781C14.1719 9.98184 14.2141 10.1962 14.2908 10.3934L11.3918 12.1352C11.0694 11.7676 10.5965 11.5352 10.0703 11.5352C9.10105 11.5352 8.3125 12.3237 8.3125 13.293C8.3125 14.2622 9.10105 15.0508 10.0703 15.0508C10.6586 15.0508 11.1803 14.7602 11.4996 14.3151L14.2507 15.7211C14.1995 15.8858 14.1719 16.0608 14.1719 16.2422C14.1719 17.2114 14.9604 18 15.9297 18C16.8989 18 17.6875 17.2114 17.6875 16.2422C17.6875 15.2729 16.8989 14.4844 15.9297 14.4844ZM15.9297 8.58594C16.5759 8.58594 17.1016 9.11164 17.1016 9.75781C17.1016 10.404 16.5759 10.9297 15.9297 10.9297C15.2835 10.9297 14.7578 10.404 14.7578 9.75781C14.7578 9.11164 15.2835 8.58594 15.9297 8.58594ZM10.0703 14.4648C9.42414 14.4648 8.89844 13.9391 8.89844 13.293C8.89844 12.6468 9.42414 12.1211 10.0703 12.1211C10.7165 12.1211 11.2422 12.6468 11.2422 13.293C11.2422 13.9391 10.7165 14.4648 10.0703 14.4648ZM15.9297 17.4141C15.2835 17.4141 14.7578 16.8884 14.7578 16.2422C14.7578 15.596 15.2835 15.0703 15.9297 15.0703C16.5759 15.0703 17.1016 15.596 17.1016 16.2422C17.1016 16.8884 16.5759 17.4141 15.9297 17.4141Z" fill="black"></path>
    </g>
    <defs>
      <clipPath id="clip0_34607_72">
        <rect width="10" height="10" fill="currentColor" transform="translate(8 8)"></rect>
      </clipPath>
    </defs>
  </symbol>
  <symbol fill="none" xmlns="http://www.w3.org/2000/svg" viewBox="0 0 50 50" id="icon5">
    <path d="M40.6901 20.3972H35.8789V17.155C35.8789 16.346 35.223 15.6902 34.4141 15.6902H1.46484C0.655859 15.6902 0 16.346 0 17.155V43.8281C0 44.6371 0.655859 45.293 1.46484 45.293H6.45312C8.04727 51.5314 16.851 51.5272 18.4427 45.293H31.5572C33.1514 51.5314 41.9551 51.5272 43.5468 45.293H48.5352C49.3441 45.293 50 44.6371 50 43.8281V29.707C50 24.5736 45.8235 20.3972 40.6901 20.3972ZM12.4479 47.0703C10.6602 47.0703 9.20576 45.6158 9.20576 43.8281C9.38379 39.527 15.5128 39.5282 15.6901 43.8281C15.6901 45.6158 14.2356 47.0703 12.4479 47.0703ZM32.9492 39.7222C32.2866 40.4642 31.8009 41.3665 31.5572 42.3632H18.4427C16.8485 36.1249 8.04482 36.1291 6.45312 42.3632H2.92969V18.6197H32.9492V39.7222ZM37.5521 47.0703C35.7643 47.0703 34.3099 45.6158 34.3099 43.8281C34.4879 39.527 40.6169 39.5282 40.7942 43.8281C40.7942 45.6158 39.3398 47.0703 37.5521 47.0703ZM47.0703 42.3633H43.5484C42.8891 39.6649 40.4508 37.6563 37.5521 37.6563H35.8789V23.3269H39.2253V32.8451C39.2253 33.6541 39.8812 34.31 40.6901 34.31H47.0703V42.3633ZM47.0703 31.3802H42.155V23.4965C44.9692 24.1603 47.0703 26.693 47.0703 29.707V31.3802Z" fill="#244D4D"></path>
    <path d="M35.9828 12.3438H39.9053C41.8489 12.2663 41.8474 9.49072 39.9053 9.41406H37.712L38.0082 7.63672H39.9053C41.8489 7.55928 41.8474 4.78369 39.9053 4.70703H38.4964L38.7926 2.92969H41.4743C43.4178 2.85225 43.4164 0.0766602 41.4743 0H37.5517C36.8356 0 36.2245 0.517676 36.1068 1.22402L34.5378 10.6381C34.389 11.5312 35.0789 12.3438 35.9828 12.3438Z" fill="#222222"></path>
    <path d="M26.5686 12.3438H30.4912C32.4347 12.2663 32.4333 9.49072 30.4912 9.41406H28.2978L28.594 7.63672H30.4912C32.4347 7.55928 32.4333 4.78369 30.4912 4.70703H29.0824L29.3787 2.92969H32.0602C34.0038 2.85225 34.0023 0.0766602 32.0602 0H28.1377C27.4216 0 26.8105 0.517676 26.6928 1.22402L25.1238 10.6381C24.975 11.5312 25.6648 12.3438 26.5686 12.3438Z" fill="#244D4D"></path>
    <path d="M15.3455 12.3238C16.4828 12.5134 16.9631 11.5279 17.0312 11.1197L17.2714 9.67852L20.1553 12.0167C20.8219 12.557 21.7379 12.3908 22.2158 11.8014C22.7253 11.1729 22.6289 10.2505 22.0004 9.74102L20.3724 8.42119H21.7313C22.4473 8.42119 23.0584 7.90352 23.1762 7.19727L24.0917 1.70576C24.2406 0.812598 23.5507 0 22.6468 0H17.1553C16.4392 0 15.8281 0.517676 15.7104 1.22402L14.8013 6.67813C14.8009 6.68008 14.8007 6.68213 14.8003 6.68408C14.7996 6.68799 14.7991 6.6919 14.7984 6.6958C14.7952 6.71367 14.7919 6.73164 14.7894 6.74971L14.1413 10.6381C14.0082 11.436 14.5474 12.1908 15.3455 12.3238ZM18.3962 2.92969H20.9175L20.4905 5.4915H17.9692L18.3962 2.92969Z" fill="#244D4D"></path>
    <path d="M6.7155 12.3239C7.8528 12.5134 8.33317 11.5279 8.40124 11.1198L8.85095 8.42131H10.8788C12.8223 8.34387 12.8209 5.56829 10.8788 5.49163H9.33923L9.76618 2.92981H12.4478C14.3914 2.85237 14.3899 0.0767822 12.4478 0.00012207H8.52526C7.80915 0.00012207 7.19802 0.517798 7.08034 1.22415L5.5114 10.6382C5.37829 11.4361 5.91745 12.1908 6.7155 12.3239Z" fill="#244D4D"></path>
  </symbol>
  <symbol fill="none" xmlns="http://www.w3.org/2000/svg" viewBox="0 0 50 49" id="icon4">
    <path d="M47.3217 16.9365C46.6619 14.8935 46.9432 11.8268 45.2283 9.45892C43.5 7.0724 40.494 6.39408 38.7967 5.15267C37.1172 3.92435 35.5547 1.2514 32.7296 0.329525C29.9842 -0.566374 27.1768 0.649349 25 0.649349C22.8235 0.649349 20.0163 -0.566667 17.2704 0.329427C14.4458 1.25111 12.882 3.92464 11.2036 5.15238C9.50811 6.39232 6.4999 7.07249 4.77187 9.45863C3.0585 11.8245 3.33691 14.8983 2.67832 16.9364C2.05156 18.8761 0 21.2041 0 24.219C0 27.2357 2.04922 29.5547 2.67832 31.5015C3.33809 33.5445 3.05684 36.6112 4.77168 38.979C6.4999 41.3657 9.50576 42.0439 11.2033 43.2854C12.8825 44.5135 14.4453 47.1867 17.2704 48.1084C20.014 49.0037 22.8258 47.7886 25 47.7886C27.1712 47.7886 29.9896 49.0025 32.7296 48.1085C35.5543 47.1869 37.1171 44.5139 38.7964 43.2856C40.4919 42.0456 43.5001 41.3655 45.2281 38.9793C46.9416 36.6133 46.663 33.5399 47.3217 31.5016C47.9484 29.5618 50 27.2337 50 24.219C50 21.2025 47.9513 18.8841 47.3217 16.9365ZM43.6048 30.3004C42.8357 32.6808 43.0372 35.3448 42.0646 36.6879C41.0788 38.049 38.4891 38.6706 36.4907 40.1324C34.5143 41.5778 33.129 43.8691 31.5179 44.3948C29.9937 44.8922 27.5097 43.8822 25.0001 43.8822C22.4722 43.8822 20.0138 44.8944 18.4822 44.3948C16.8713 43.8691 15.488 41.5793 13.5094 40.1323C11.5229 38.6794 8.91836 38.045 7.93545 36.6877C6.96592 35.3491 7.15977 32.6666 6.39541 30.3005C5.64619 27.9823 3.90625 25.9749 3.90625 24.219C3.90625 22.4613 5.64463 20.4609 6.39522 18.1375C7.16426 15.7573 6.96279 13.0931 7.93545 11.75C8.92061 10.3899 11.5123 9.76615 13.5094 8.3056C15.4921 6.8555 16.8687 4.56966 18.482 4.0432C20.005 3.54632 22.4971 4.55579 24.9999 4.55579C27.5324 4.55579 29.9847 3.5429 31.5178 4.0432C33.1285 4.56878 34.513 6.85941 36.4907 8.3057C38.477 9.75853 41.0816 10.393 42.0646 11.7501C43.0343 13.0891 42.8394 15.7688 43.6046 18.1373V18.1374C44.3538 20.4557 46.0938 22.463 46.0938 24.219C46.0938 25.9767 44.3554 27.9771 43.6048 30.3004ZM33.9983 17.9499C34.7611 18.7127 34.7611 19.9494 33.9983 20.712L24.2224 30.488C23.4596 31.2508 22.2229 31.2507 21.4602 30.488L16.0018 25.0296C15.239 24.2668 15.2389 23.0302 16.0017 22.2675C16.7645 21.5048 18.0013 21.5047 18.7638 22.2675L22.8412 26.3449L31.236 17.95C31.9988 17.1872 33.2355 17.1872 33.9983 17.9499Z" fill="#244D4D"></path>
  </symbol>
  <symbol fill="none" xmlns="http://www.w3.org/2000/svg" viewBox="0 0 43 50" id="icon3">
    <path d="M42.528 13.5662L42.5265 13.5273C42.5047 13.047 42.4902 12.5389 42.4815 11.9736C42.4407 9.21668 40.2491 6.93626 37.4919 6.78214C31.7431 6.46133 27.296 4.58679 23.4962 0.883111L23.4637 0.852212C22.2243 -0.284183 20.3548 -0.284183 19.115 0.852212L19.0826 0.883111C15.2828 4.58679 10.8356 6.46133 5.08687 6.78252C2.32999 6.93626 0.138074 9.21668 0.0972567 11.9739C0.0888644 12.5355 0.0739871 13.0436 0.0522434 13.5273L0.0499546 13.6177C-0.0618157 19.4797 -0.20067 26.7753 2.23997 33.3972C3.58197 37.0387 5.61444 40.2041 8.28052 42.8061C11.317 45.7694 15.2942 48.1219 20.1015 49.7981C20.2579 49.8526 20.4204 49.8969 20.5859 49.9301C20.8194 49.9766 21.0544 49.9999 21.2894 49.9999C21.5244 49.9999 21.7597 49.9766 21.9928 49.9301C22.1584 49.8969 22.322 49.8522 22.4792 49.7973C27.2807 48.1181 31.2537 45.7644 34.2875 42.8016C36.9525 40.1988 38.9849 37.0326 40.3281 33.3903C42.7779 26.7486 42.6394 19.4393 42.528 13.5662ZM37.5754 32.3753C35.0013 39.3546 29.7465 44.1478 21.511 47.0279C21.4816 47.0378 21.4503 47.0465 21.4179 47.053C21.3329 47.0698 21.2463 47.0698 21.16 47.0526C21.128 47.0462 21.0967 47.0378 21.0677 47.0279C12.8234 44.1531 7.56527 39.3626 4.99303 32.3829C2.7435 26.279 2.87092 19.5819 2.98345 13.6738L2.98421 13.641C3.0071 13.1332 3.02236 12.6014 3.03075 12.017C3.04906 10.7929 4.0241 9.78011 5.25052 9.71182C8.50368 9.53024 11.3616 8.90158 13.9877 7.78998C16.6103 6.67991 18.9395 5.11513 21.1078 3.00637C21.218 2.91329 21.3611 2.91291 21.4709 3.00637C23.6396 5.11513 25.9688 6.67991 28.5911 7.78998C31.2171 8.90158 34.0751 9.53024 37.3286 9.71182C38.555 9.78011 39.5301 10.7929 39.548 12.0174C39.5568 12.6049 39.572 13.1366 39.5949 13.641C39.7071 19.556 39.8314 26.2584 37.5754 32.3753Z" fill="#244D4D"></path>
    <path d="M21.2888 12.5401C14.4178 12.5401 8.82812 18.1301 8.82812 25.0008C8.82812 31.8718 14.4178 37.4619 21.2888 37.4619C28.1595 37.4619 33.7495 31.8718 33.7495 25.0008C33.7495 18.1301 28.1595 12.5401 21.2888 12.5401ZM21.2888 34.5276C16.0356 34.5276 11.762 30.254 11.762 25.0008C11.762 19.7476 16.0356 15.474 21.2888 15.474C26.5417 15.474 30.8153 19.7476 30.8153 25.0008C30.8153 30.254 26.5417 34.5276 21.2888 34.5276Z" fill="#244D4D"></path>
    <path d="M24.8696 21.1323L19.082 26.9199L17.5111 25.3491C16.9381 24.7761 16.0092 24.7761 15.4363 25.3491C14.8637 25.922 14.8637 26.8509 15.4363 27.4235L18.0448 30.032C18.3312 30.3185 18.7066 30.4615 19.082 30.4615C19.4573 30.4615 19.8327 30.3185 20.1192 30.032L26.9445 23.2067C27.517 22.6338 27.517 21.7049 26.9445 21.1323C26.3715 20.5589 25.4426 20.5589 24.8696 21.1323Z" fill="#244D4D"></path>
  </symbol>
  <symbol fill="none" xmlns="http://www.w3.org/2000/svg" viewBox="0 0 24 24" id="loupe">
    <g clip-path="url(#clip0_34607_33)">
      <path d="M10.5691 0.0178223C4.74145 0.0178223 0 4.75609 0 10.5798C0 16.4039 4.74145 21.1418 10.5691 21.1418C16.3971 21.1418 21.1382 16.4039 21.1382 10.5798C21.1382 4.75609 16.3971 0.0178223 10.5691 0.0178223ZM10.5691 19.1919C5.81723 19.1919 1.95122 15.3285 1.95122 10.5799C1.95122 5.83119 5.81723 1.96773 10.5691 1.96773C15.321 1.96773 19.187 5.83114 19.187 10.5798C19.187 15.3285 15.321 19.1919 10.5691 19.1919Z" fill="currentColor"></path>
      <path d="M23.714 22.3374L18.1205 16.7477C17.7393 16.3668 17.1221 16.3668 16.7409 16.7477C16.3598 17.1283 16.3598 17.7457 16.7409 18.1263L22.3344 23.7161C22.525 23.9065 22.7745 24.0017 23.0242 24.0017C23.2736 24.0017 23.5234 23.9065 23.714 23.7161C24.0951 23.3355 24.0951 22.718 23.714 22.3374Z" fill="currentColor"></path>
    </g>
    <defs>
      <clipPath id="clip0_34607_33">
        <rect width="24" height="24" fill="white"></rect>
      </clipPath>
    </defs>
  </symbol>
  <symbol fill="none" xmlns="http://www.w3.org/2000/svg" viewBox="0 0 144 23" id="logo">
    <path d="M-0.000187397 17.808V1.00798H7.63181C9.45581 1.00798 11.0638 1.35998 12.4558 2.06398C13.8478 2.75198 14.9358 3.71998 15.7198 4.96798C16.5038 6.21598 16.8958 7.69598 16.8958 9.40798C16.8958 11.104 16.5038 12.584 15.7198 13.848C14.9358 15.096 13.8478 16.072 12.4558 16.776C11.0638 17.464 9.45581 17.808 7.63181 17.808H-0.000187397ZM3.88781 14.616H7.43981C8.55981 14.616 9.52781 14.408 10.3438 13.992C11.1758 13.56 11.8158 12.952 12.2638 12.168C12.7278 11.384 12.9598 10.464 12.9598 9.40798C12.9598 8.33598 12.7278 7.41598 12.2638 6.64798C11.8158 5.86398 11.1758 5.26398 10.3438 4.84798C9.52781 4.41598 8.55981 4.19998 7.43981 4.19998H3.88781V14.616ZM25.0119 18C23.9399 18 22.9799 17.792 22.1319 17.376C21.2999 16.96 20.6519 16.328 20.1879 15.48C19.7239 14.616 19.4919 13.52 19.4919 12.192V4.89598H23.2359V11.64C23.2359 12.712 23.4599 13.504 23.9079 14.016C24.3719 14.512 25.0199 14.76 25.8519 14.76C26.4279 14.76 26.9399 14.64 27.3879 14.4C27.8359 14.144 28.1879 13.76 28.4439 13.248C28.6999 12.72 28.8279 12.064 28.8279 11.28V4.89598H32.5719V17.808H29.0199V14.256L29.6679 15.288C29.2359 16.184 28.5959 16.864 27.7479 17.328C26.9159 17.776 26.0039 18 25.0119 18ZM41.5845 18C40.3685 18 39.2725 17.728 38.2965 17.184C37.3205 16.624 36.5445 15.848 35.9685 14.856C35.4085 13.864 35.1285 12.696 35.1285 11.352C35.1285 9.99198 35.4085 8.81598 35.9685 7.82398C36.5445 6.83198 37.3205 6.06398 38.2965 5.51998C39.2725 4.97598 40.3685 4.70398 41.5845 4.70398C42.6725 4.70398 43.6245 4.94398 44.4405 5.42398C45.2565 5.90398 45.8885 6.63198 46.3365 7.60798C46.7845 8.58398 47.0085 9.83198 47.0085 11.352C47.0085 12.856 46.7925 14.104 46.3605 15.096C45.9285 16.072 45.3045 16.8 44.4885 17.28C43.6885 17.76 42.7205 18 41.5845 18ZM42.2325 14.928C42.8405 14.928 43.3925 14.784 43.8885 14.496C44.3845 14.208 44.7765 13.8 45.0645 13.272C45.3685 12.728 45.5205 12.088 45.5205 11.352C45.5205 10.6 45.3685 9.95998 45.0645 9.43198C44.7765 8.90398 44.3845 8.49598 43.8885 8.20798C43.3925 7.91998 42.8405 7.77598 42.2325 7.77598C41.6085 7.77598 41.0485 7.91998 40.5525 8.20798C40.0565 8.49598 39.6565 8.90398 39.3525 9.43198C39.0645 9.95998 38.9205 10.6 38.9205 11.352C38.9205 12.088 39.0645 12.728 39.3525 13.272C39.6565 13.8 40.0565 14.208 40.5525 14.496C41.0485 14.784 41.6085 14.928 42.2325 14.928ZM45.6165 17.808V15.168L45.6885 11.328L45.4485 7.51198V-1.7643e-05H49.1925V17.808H45.6165ZM59.0657 18C57.5937 18 56.2977 17.712 55.1777 17.136C54.0737 16.56 53.2177 15.776 52.6097 14.784C52.0017 13.776 51.6977 12.632 51.6977 11.352C51.6977 10.056 51.9937 8.91198 52.5857 7.91998C53.1937 6.91198 54.0177 6.12798 55.0577 5.56798C56.0977 4.99198 57.2737 4.70398 58.5857 4.70398C59.8497 4.70398 60.9857 4.97598 61.9937 5.51998C63.0177 6.04798 63.8257 6.81598 64.4177 7.82398C65.0097 8.81598 65.3057 10.008 65.3057 11.4C65.3057 11.544 65.2977 11.712 65.2817 11.904C65.2657 12.08 65.2497 12.248 65.2337 12.408H54.7457V10.224H63.2657L61.8257 10.872C61.8257 10.2 61.6897 9.61598 61.4177 9.11998C61.1457 8.62398 60.7697 8.23998 60.2897 7.96798C59.8097 7.67998 59.2497 7.53598 58.6097 7.53598C57.9697 7.53598 57.4017 7.67998 56.9057 7.96798C56.4257 8.23998 56.0497 8.63198 55.7777 9.14398C55.5057 9.63998 55.3697 10.232 55.3697 10.92V11.496C55.3697 12.2 55.5217 12.824 55.8257 13.368C56.1457 13.896 56.5857 14.304 57.1457 14.592C57.7217 14.864 58.3937 15 59.1617 15C59.8497 15 60.4497 14.896 60.9617 14.688C61.4897 14.48 61.9697 14.168 62.4017 13.752L64.3937 15.912C63.8017 16.584 63.0577 17.104 62.1617 17.472C61.2657 17.824 60.2337 18 59.0657 18ZM73.5823 18.096C72.2383 18.096 70.9503 17.92 69.7183 17.568C68.4863 17.2 67.4943 16.728 66.7423 16.152L68.0623 13.224C68.7823 13.736 69.6303 14.16 70.6063 14.496C71.5983 14.816 72.5983 14.976 73.6063 14.976C74.3743 14.976 74.9903 14.904 75.4543 14.76C75.9343 14.6 76.2863 14.384 76.5103 14.112C76.7343 13.84 76.8463 13.528 76.8463 13.176C76.8463 12.728 76.6703 12.376 76.3183 12.12C75.9663 11.848 75.5023 11.632 74.9263 11.472C74.3503 11.296 73.7103 11.136 73.0063 10.992C72.3183 10.832 71.6223 10.64 70.9183 10.416C70.2303 10.192 69.5983 9.90398 69.0223 9.55198C68.4463 9.19998 67.9743 8.73598 67.6063 8.15998C67.2543 7.58398 67.0783 6.84798 67.0783 5.95198C67.0783 4.99198 67.3343 4.11998 67.8463 3.33598C68.3743 2.53598 69.1583 1.90398 70.1983 1.43998C71.2543 0.959983 72.5743 0.719983 74.1583 0.719983C75.2143 0.719983 76.2543 0.847983 77.2783 1.10398C78.3023 1.34398 79.2063 1.71198 79.9903 2.20798L78.7903 5.15998C78.0063 4.71198 77.2223 4.38398 76.4383 4.17598C75.6543 3.95198 74.8863 3.83998 74.1343 3.83998C73.3823 3.83998 72.7663 3.92798 72.2863 4.10398C71.8063 4.27998 71.4623 4.51198 71.2543 4.79998C71.0463 5.07198 70.9423 5.39198 70.9423 5.75998C70.9423 6.19198 71.1183 6.54398 71.4703 6.81598C71.8223 7.07198 72.2863 7.27998 72.8623 7.43998C73.4383 7.59998 74.0703 7.75998 74.7583 7.91998C75.4623 8.07998 76.1583 8.26398 76.8463 8.47198C77.5503 8.67998 78.1903 8.95998 78.7663 9.31198C79.3423 9.66398 79.8063 10.128 80.1583 10.704C80.5263 11.28 80.7103 12.008 80.7103 12.888C80.7103 13.832 80.4463 14.696 79.9183 15.48C79.3903 16.264 78.5983 16.896 77.5423 17.376C76.5023 17.856 75.1823 18.096 73.5823 18.096ZM90.951 4.70398C91.975 4.70398 92.887 4.91198 93.687 5.32798C94.503 5.72798 95.143 6.35198 95.607 7.19998C96.071 8.03198 96.303 9.10398 96.303 10.416V17.808H92.559V10.992C92.559 9.95198 92.327 9.18398 91.863 8.68798C91.415 8.19198 90.775 7.94398 89.943 7.94398C89.351 7.94398 88.815 8.07198 88.335 8.32798C87.871 8.56798 87.503 8.94398 87.231 9.45598C86.975 9.96798 86.847 10.624 86.847 11.424V17.808H83.103V-1.7643e-05H86.847V8.47198L86.007 7.39198C86.471 6.52798 87.135 5.86398 87.999 5.39998C88.863 4.93598 89.847 4.70398 90.951 4.70398ZM107.617 17.808V15.288L107.377 14.736V10.224C107.377 9.42398 107.129 8.79998 106.633 8.35198C106.153 7.90398 105.409 7.67998 104.401 7.67998C103.713 7.67998 103.033 7.79198 102.361 8.01598C101.705 8.22398 101.145 8.51198 100.681 8.87998L99.3368 6.26398C100.041 5.76798 100.889 5.38398 101.881 5.11198C102.873 4.83998 103.881 4.70398 104.905 4.70398C106.873 4.70398 108.401 5.16798 109.489 6.09598C110.577 7.02398 111.121 8.47198 111.121 10.44V17.808H107.617ZM103.681 18C102.673 18 101.809 17.832 101.089 17.496C100.369 17.144 99.8168 16.672 99.4328 16.08C99.0488 15.488 98.8568 14.824 98.8568 14.088C98.8568 13.32 99.0408 12.648 99.4088 12.072C99.7928 11.496 100.393 11.048 101.209 10.728C102.025 10.392 103.089 10.224 104.401 10.224H107.833V12.408H104.809C103.929 12.408 103.321 12.552 102.985 12.84C102.665 13.128 102.505 13.488 102.505 13.92C102.505 14.4 102.689 14.784 103.057 15.072C103.441 15.344 103.961 15.48 104.617 15.48C105.241 15.48 105.801 15.336 106.297 15.048C106.793 14.744 107.153 14.304 107.377 13.728L107.953 15.456C107.681 16.288 107.185 16.92 106.465 17.352C105.745 17.784 104.817 18 103.681 18ZM122.141 18C121.053 18 120.101 17.76 119.285 17.28C118.469 16.8 117.829 16.072 117.365 15.096C116.917 14.104 116.693 12.856 116.693 11.352C116.693 9.83198 116.909 8.58398 117.341 7.60798C117.773 6.63198 118.397 5.90398 119.213 5.42398C120.029 4.94398 121.005 4.70398 122.141 4.70398C123.357 4.70398 124.445 4.98398 125.405 5.54398C126.381 6.08798 127.149 6.85598 127.709 7.84798C128.285 8.83998 128.573 10.008 128.573 11.352C128.573 12.712 128.285 13.888 127.709 14.88C127.149 15.872 126.381 16.64 125.405 17.184C124.445 17.728 123.357 18 122.141 18ZM114.509 22.464V4.89598H118.085V7.53598L118.013 11.376L118.253 15.192V22.464H114.509ZM121.493 14.928C122.117 14.928 122.669 14.784 123.149 14.496C123.645 14.208 124.037 13.8 124.325 13.272C124.629 12.728 124.781 12.088 124.781 11.352C124.781 10.6 124.629 9.95998 124.325 9.43198C124.037 8.90398 123.645 8.49598 123.149 8.20798C122.669 7.91998 122.117 7.77598 121.493 7.77598C120.869 7.77598 120.309 7.91998 119.813 8.20798C119.317 8.49598 118.925 8.90398 118.637 9.43198C118.349 9.95998 118.205 10.6 118.205 11.352C118.205 12.088 118.349 12.728 118.637 13.272C118.925 13.8 119.317 14.208 119.813 14.496C120.309 14.784 120.869 14.928 121.493 14.928ZM137.488 18C136.016 18 134.72 17.712 133.6 17.136C132.496 16.56 131.64 15.776 131.032 14.784C130.424 13.776 130.12 12.632 130.12 11.352C130.12 10.056 130.416 8.91198 131.008 7.91998C131.616 6.91198 132.44 6.12798 133.48 5.56798C134.52 4.99198 135.696 4.70398 137.008 4.70398C138.272 4.70398 139.408 4.97598 140.416 5.51998C141.44 6.04798 142.248 6.81598 142.84 7.82398C143.432 8.81598 143.728 10.008 143.728 11.4C143.728 11.544 143.72 11.712 143.704 11.904C143.688 12.08 143.672 12.248 143.656 12.408H133.168V10.224H141.688L140.248 10.872C140.248 10.2 140.112 9.61598 139.84 9.11998C139.568 8.62398 139.192 8.23998 138.712 7.96798C138.232 7.67998 137.672 7.53598 137.032 7.53598C136.392 7.53598 135.824 7.67998 135.328 7.96798C134.848 8.23998 134.472 8.63198 134.2 9.14398C133.928 9.63998 133.792 10.232 133.792 10.92V11.496C133.792 12.2 133.944 12.824 134.248 13.368C134.568 13.896 135.008 14.304 135.568 14.592C136.144 14.864 136.816 15 137.584 15C138.272 15 138.872 14.896 139.384 14.688C139.912 14.48 140.392 14.168 140.824 13.752L142.816 15.912C142.224 16.584 141.48 17.104 140.584 17.472C139.688 17.824 138.656 18 137.488 18Z" fill="currentColor"></path>
  </symbol>
</svg>
